<svg xmlns="http://www.w3.org/2000/svg" viewBox="0 0 64 64" fill="none">
  <defs>
    <linearGradient id="ring" x1="0%" y1="0%" x2="100%" y2="100%">
      <stop offset="0%" stop-color="#00f0ff"/>
      <stop offset="100%" stop-color="#00ff88"/>
    </linearGradient>
    <radialGradient id="iris" cx="50%" cy="50%" r="50%">
      <stop offset="0%" stop-color="#00ff88"/>
      <stop offset="55%" stop-color="#00f0ff"/>
      <stop offset="100%" stop-color="#0a2540"/>
    </radialGradient>
  </defs>
  <circle cx="32" cy="32" r="30" stroke="url(#ring)" stroke-width="1.2"/>
  <circle cx="32" cy="32" r="27" stroke="#00f0ff" stroke-width="0.5" opacity="0.35" stroke-dasharray="3 5"/>
  <ellipse cx="17" cy="32" rx="3.2" ry="2.2" fill="#03060d" stroke="#00f0ff" stroke-width="0.7"/>
  <circle cx="17" cy="32" r="1.1" fill="#00ff88"/>
  <ellipse cx="32" cy="11" rx="3.2" ry="2.2" fill="#03060d" stroke="#00f0ff" stroke-width="0.7"/>
  <circle cx="32" cy="11" r="1.1" fill="#00ff88"/>
  <ellipse cx="47" cy="32" rx="3.2" ry="2.2" fill="#03060d" stroke="#00f0ff" stroke-width="0.7"/>
  <circle cx="47" cy="32" r="1.1" fill="#00ff88"/>
  <ellipse cx="32" cy="53" rx="3.2" ry="2.2" fill="#03060d" stroke="#00f0ff" stroke-width="0.7"/>
  <circle cx="32" cy="53" r="1.1" fill="#00ff88"/>
  <ellipse cx="21" cy="17" rx="3.2" ry="2.2" fill="#03060d" stroke="#00f0ff" stroke-width="0.7"/>
  <circle cx="21" cy="17" r="1.1" fill="#00ff88"/>
  <ellipse cx="43" cy="17" rx="3.2" ry="2.2" fill="#03060d" stroke="#00f0ff" stroke-width="0.7"/>
  <circle cx="43" cy="17" r="1.1" fill="#00ff88"/>
  <ellipse cx="21" cy="47" rx="3.2" ry="2.2" fill="#03060d" stroke="#00f0ff" stroke-width="0.7"/>
  <circle cx="21" cy="47" r="1.1" fill="#00ff88"/>
  <ellipse cx="43" cy="47" rx="3.2" ry="2.2" fill="#03060d" stroke="#00f0ff" stroke-width="0.7"/>
  <circle cx="43" cy="47" r="1.1" fill="#00ff88"/>
  <ellipse cx="32" cy="32" rx="11" ry="8" fill="#03060d" stroke="url(#ring)" stroke-width="1.2"/>
  <circle cx="32" cy="32" r="5.5" fill="url(#iris)"/>
  <circle cx="32" cy="32" r="2.2" fill="#03060d"/>
  <circle cx="34" cy="30" r="0.9" fill="#00f0ff"/>
</svg>
